{"title":"Aloha {2015} HC TS X264 AC3-MRG","uid":12064412,"size":411994962,"categoryP":"video","categoryS":"movies","magnet":"?xt=urn:btih:1104447bbe4a3cd6be1e5b3a045c3f1ac7f41060&amp;dn=Aloha+%7B2015%7D+HC+TS+X264+AC3-MRG&amp;tr=udp%3A%2F%2Ftracker.openbittorrent.com%3A80&amp;tr=udp%3A%2F%2Fopen.demonii.com%3A1337&amp;tr=udp%3A%2F%2Ftracker.coppersurfer.tk%3A6969&amp;tr=udp%3A%2F%2Fexodus.desync.com%3A6969","seeders":6,"leechers":4,"uploader":"SaM","files":9,"time":1435354185,"description":"Aloha {2015} HC TS X264 AC3-MRG\n\nASIAN SUBS ENG AUDIO..\n\nFormat : Matroska\nFormat version : Version 2\nFile size : 392 MiB\nDuration : 1h 18mn\nOverall bit rate : 700 Kbps\nWriting application : Lavf54.63.104\nWriting library : Lavf54.63.104\n\nVideo\nID : 1\nFormat : AVC\nFormat/Info : Advanced Video Codec\nFormat profile : High@L3\nFormat settings, CABAC : Yes\nFormat settings, ReFrames : 4 frames\nCodec ID : V_MPEG4/ISO/AVC\nDuration : 1h 18mn\nBit rate : 509 Kbps\nWidth : 704 pixels\nHeight : 368 pixels\nDisplay aspect ratio : 1.913\nFrame rate mode : Constant\nFrame rate : 30.000 fps\nColor space : YUV\nChroma subsampling : 4:2:0\nBit depth : 8 bits\nScan type : Progressive\nBits/(Pixel*Frame) : 0.065\nStream size : 277 MiB (71%)\nWriting library : x264 core \n\nAudio\nID : 2\nFormat : AC-3\nFormat/Info : Audio Coding 3\nMode extension : CM (complete main)\nFormat settings, Endianness : Big\nCodec ID : A_AC3\nDuration : 1h 18mn\nBit rate mode : Constant\nBit rate : 192 Kbps\nChannel(s) : 2 channels\nChannel positions : Front: L R\nSampling rate : 48.0 KHz\nCompression mode : Lossy\nDelay relative to video : 24ms\nStream size : 108 MiB (27%)\nDefault : Yes\nForced : No\n &lt;a href=&quot;\nhttp://extraimago.com/image/sMy&quot; rel=&quot;nofollow&quot; target=&quot;_NEW&quot;&gt;\nhttp://extraimago.com/image/sMy&lt;/a&gt; &lt;a href=&quot;\nhttp://extraimago.com/image/sMq&quot; rel=&quot;nofollow&quot; target=&quot;_NEW&quot;&gt;\nhttp://extraimago.com/image/sMq&lt;/a&gt; &lt;a href=&quot;\nhttp://extraimago.com/image/sMS&quot; rel=&quot;nofollow&quot; target=&quot;_NEW&quot;&gt;\nhttp://extraimago.com/image/sMS&lt;/a&gt; &lt;a href=&quot;\nhttp://extraimago.com/image/sMO&quot; rel=&quot;nofollow&quot; target=&quot;_NEW&quot;&gt;\nhttp://extraimago.com/image/sMO&lt;/a&gt; &lt;a href=&quot;\nhttp://extraimago.com/image/sME&quot; rel=&quot;nofollow&quot; target=&quot;_NEW&quot;&gt;\nhttp://extraimago.com/image/sME&lt;/a&gt;","torrent":{"xt":"urn:btih:1104447bbe4a3cd6be1e5b3a045c3f1ac7f41060","amp;dn":"Aloha+%7B2015%7D+HC+TS+X264+AC3-MRG","amp;tr":["udp%3A%2F%2Ftracker.openbittorrent.com%3A80","udp%3A%2F%2Fopen.demonii.com%3A1337","udp%3A%2F%2Ftracker.coppersurfer.tk%3A6969","udp%3A%2F%2Fexodus.desync.com%3A6969"],"infoHash":"1104447bbe4a3cd6be1e5b3a045c3f1ac7f41060","infoHashBuffer":{"type":"Buffer","data":[17,4,68,123,190,74,60,214,190,30,91,58,4,92,63,26,199,244,16,96]},"announce":[],"urlList":[]}}